<svg xmlns="http://www.w3.org/2000/svg" xmlns:xlink="http://www.w3.org/1999/xlink" width="500" zoomAndPan="magnify" viewBox="0 0 375 374.999991" height="500" preserveAspectRatio="xMidYMid meet" version="1.0"><defs><filter x="0%" y="0%" width="100%" height="100%" id="b7ac77fdf7"><feColorMatrix values="0 0 0 0 1 0 0 0 0 1 0 0 0 0 1 0 0 0 1 0" color-interpolation-filters="sRGB"/></filter><clipPath id="e2f1bdf6cf"><path d="M 352.28125 171.128906 L 356.945312 171.128906 L 356.945312 175.199219 L 352.28125 175.199219 Z M 352.28125 171.128906 " clip-rule="nonzero"/></clipPath><clipPath id="95fccb9a91"><path d="M 354.609375 175.199219 L 356.9375 171.128906 L 352.28125 171.128906 Z M 354.609375 175.199219 " clip-rule="nonzero"/></clipPath><mask id="eda51add41"><g filter="url(#b7ac77fdf7)"><rect x="-37.5" width="450" fill="#000000" y="-37.499999" height="449.999989" fill-opacity="0.89"/></g></mask><clipPath id="e8b8f125ba"><path d="M 6.929688 10.148438 L 368 10.148438 L 368 113.71875 L 6.929688 113.71875 Z M 6.929688 10.148438 " clip-rule="nonzero"/></clipPath><clipPath id="9a033ed1e6"><path d="M 13.679688 10.148438 L 361.105469 10.148438 C 364.835938 10.148438 367.855469 13.171875 367.855469 16.898438 L 367.855469 106.96875 C 367.855469 110.695312 364.835938 113.71875 361.105469 113.71875 L 13.679688 113.71875 C 9.949219 113.71875 6.929688 110.695312 6.929688 106.96875 L 6.929688 16.898438 C 6.929688 13.171875 9.949219 10.148438 13.679688 10.148438 Z M 13.679688 10.148438 " clip-rule="nonzero"/></clipPath><clipPath id="8e535f0e4f"><path d="M 6.945312 10.148438 L 367.679688 10.148438 L 367.679688 113.648438 L 6.945312 113.648438 Z M 6.945312 10.148438 " clip-rule="nonzero"/></clipPath><clipPath id="c82970ad8e"><path d="M 13.695312 10.148438 L 361.085938 10.148438 C 364.816406 10.148438 367.835938 13.167969 367.835938 16.898438 L 367.835938 106.957031 C 367.835938 110.683594 364.816406 113.707031 361.085938 113.707031 L 13.695312 113.707031 C 9.96875 113.707031 6.945312 110.683594 6.945312 106.957031 L 6.945312 16.898438 C 6.945312 13.167969 9.96875 10.148438 13.695312 10.148438 Z M 13.695312 10.148438 " clip-rule="nonzero"/></clipPath><radialGradient gradientTransform="matrix(1.333333, 0, 0, 1.333333, 0, -0.000000000000040856)" gradientUnits="userSpaceOnUse" r="187.727502" cx="180.444664" id="11d84e22c3" cy="51.779898" fx="180.444664" fy="51.779898"><stop stop-opacity="1" stop-color="rgb(2.693176%, 31.29425%, 27.658081%)" offset="0"/><stop stop-opacity="1" stop-color="rgb(2.684021%, 31.111145%, 27.412415%)" offset="0.015625"/><stop stop-opacity="1" stop-color="rgb(2.674866%, 30.953979%, 27.201843%)" offset="0.0273438"/><stop stop-opacity="1" stop-color="rgb(2.667236%, 30.796814%, 26.989746%)" offset="0.0390625"/><stop stop-opacity="1" stop-color="rgb(2.659607%, 30.639648%, 26.779175%)" offset="0.0507812"/><stop stop-opacity="1" stop-color="rgb(2.650452%, 30.482483%, 26.568604%)" offset="0.0625"/><stop stop-opacity="1" stop-color="rgb(2.642822%, 30.325317%, 26.358032%)" offset="0.0742188"/><stop stop-opacity="1" stop-color="rgb(2.635193%, 30.168152%, 26.147461%)" offset="0.0859375"/><stop stop-opacity="1" stop-color="rgb(2.626038%, 30.010986%, 25.935364%)" offset="0.0976562"/><stop stop-opacity="1" stop-color="rgb(2.618408%, 29.853821%, 25.724792%)" offset="0.109375"/><stop stop-opacity="1" stop-color="rgb(2.609253%, 29.696655%, 25.514221%)" offset="0.121094"/><stop stop-opacity="1" stop-color="rgb(2.601624%, 29.541016%, 25.30365%)" offset="0.132812"/><stop stop-opacity="1" stop-color="rgb(2.593994%, 29.38385%, 25.091553%)" offset="0.144531"/><stop stop-opacity="1" stop-color="rgb(2.584839%, 29.226685%, 24.880981%)" offset="0.15625"/><stop stop-opacity="1" stop-color="rgb(2.577209%, 29.069519%, 24.67041%)" offset="0.167969"/><stop stop-opacity="1" stop-color="rgb(2.56958%, 28.912354%, 24.459839%)" offset="0.179688"/><stop stop-opacity="1" stop-color="rgb(2.560425%, 28.755188%, 24.247742%)" offset="0.191406"/><stop stop-opacity="1" stop-color="rgb(2.552795%, 28.598022%, 24.03717%)" offset="0.203125"/><stop stop-opacity="1" stop-color="rgb(2.54364%, 28.440857%, 23.826599%)" offset="0.214844"/><stop stop-opacity="1" stop-color="rgb(2.536011%, 28.283691%, 23.616028%)" offset="0.226562"/><stop stop-opacity="1" stop-color="rgb(2.528381%, 28.126526%, 23.403931%)" offset="0.238281"/><stop stop-opacity="1" stop-color="rgb(2.519226%, 27.96936%, 23.193359%)" offset="0.25"/><stop stop-opacity="1" stop-color="rgb(2.508545%, 27.760315%, 22.912598%)" offset="0.261719"/><stop stop-opacity="1" stop-color="rgb(2.494812%, 27.49939%, 22.56012%)" offset="0.28125"/><stop stop-opacity="1" stop-color="rgb(2.481079%, 27.236938%, 22.209167%)" offset="0.300781"/><stop stop-opacity="1" stop-color="rgb(2.467346%, 26.976013%, 21.858215%)" offset="0.320312"/><stop stop-opacity="1" stop-color="rgb(2.453613%, 26.713562%, 21.505737%)" offset="0.339844"/><stop stop-opacity="1" stop-color="rgb(2.43988%, 26.452637%, 21.154785%)" offset="0.359375"/><stop stop-opacity="1" stop-color="rgb(2.427673%, 26.216125%, 20.837402%)" offset="0.378906"/><stop stop-opacity="1" stop-color="rgb(2.416992%, 26.00708%, 20.556641%)" offset="0.394531"/><stop stop-opacity="1" stop-color="rgb(2.406311%, 25.798035%, 20.275879%)" offset="0.410156"/><stop stop-opacity="1" stop-color="rgb(2.39563%, 25.588989%, 19.993591%)" offset="0.425781"/><stop stop-opacity="1" stop-color="rgb(2.383423%, 25.378418%, 19.71283%)" offset="0.441406"/><stop stop-opacity="1" stop-color="rgb(2.372742%, 25.169373%, 19.432068%)" offset="0.457031"/><stop stop-opacity="1" stop-color="rgb(2.362061%, 24.960327%, 19.151306%)" offset="0.472656"/><stop stop-opacity="1" stop-color="rgb(2.351379%, 24.751282%, 18.869019%)" offset="0.488281"/><stop stop-opacity="1" stop-color="rgb(2.342224%, 24.568176%, 18.623352%)" offset="0.503906"/><stop stop-opacity="1" stop-color="rgb(2.333069%, 24.411011%, 18.412781%)" offset="0.515625"/><stop stop-opacity="1" stop-color="rgb(2.325439%, 24.253845%, 18.200684%)" offset="0.527344"/><stop stop-opacity="1" stop-color="rgb(2.31781%, 24.09668%, 17.990112%)" offset="0.539062"/><stop stop-opacity="1" stop-color="rgb(2.308655%, 23.939514%, 17.779541%)" offset="0.550781"/><stop stop-opacity="1" stop-color="rgb(2.301025%, 23.782349%, 17.56897%)" offset="0.5625"/><stop stop-opacity="1" stop-color="rgb(2.293396%, 23.625183%, 17.358398%)" offset="0.574219"/><stop stop-opacity="1" stop-color="rgb(2.284241%, 23.468018%, 17.146301%)" offset="0.585938"/><stop stop-opacity="1" stop-color="rgb(2.276611%, 23.310852%, 16.93573%)" offset="0.597656"/><stop stop-opacity="1" stop-color="rgb(2.267456%, 23.153687%, 16.725159%)" offset="0.609375"/><stop stop-opacity="1" stop-color="rgb(2.259827%, 22.998047%, 16.514587%)" offset="0.621094"/><stop stop-opacity="1" stop-color="rgb(2.249146%, 22.789001%, 16.2323%)" offset="0.632812"/><stop stop-opacity="1" stop-color="rgb(2.235413%, 22.52655%, 15.881348%)" offset="0.652344"/><stop stop-opacity="1" stop-color="rgb(2.22168%, 22.265625%, 15.52887%)" offset="0.671875"/><stop stop-opacity="1" stop-color="rgb(2.209473%, 22.029114%, 15.213013%)" offset="0.691406"/><stop stop-opacity="1" stop-color="rgb(2.198792%, 21.820068%, 14.932251%)" offset="0.707031"/><stop stop-opacity="1" stop-color="rgb(2.186584%, 21.611023%, 14.649963%)" offset="0.722656"/><stop stop-opacity="1" stop-color="rgb(2.175903%, 21.400452%, 14.369202%)" offset="0.738281"/><stop stop-opacity="1" stop-color="rgb(2.166748%, 21.217346%, 14.123535%)" offset="0.753906"/><stop stop-opacity="1" stop-color="rgb(2.159119%, 21.060181%, 13.912964%)" offset="0.765625"/><stop stop-opacity="1" stop-color="rgb(2.149963%, 20.903015%, 13.700867%)" offset="0.777344"/><stop stop-opacity="1" stop-color="rgb(2.142334%, 20.74585%, 13.490295%)" offset="0.789062"/><stop stop-opacity="1" stop-color="rgb(2.134705%, 20.59021%, 13.279724%)" offset="0.800781"/><stop stop-opacity="1" stop-color="rgb(2.125549%, 20.433044%, 13.069153%)" offset="0.8125"/><stop stop-opacity="1" stop-color="rgb(2.114868%, 20.223999%, 12.786865%)" offset="0.824219"/><stop stop-opacity="1" stop-color="rgb(2.101135%, 19.961548%, 12.435913%)" offset="0.84375"/><stop stop-opacity="1" stop-color="rgb(2.088928%, 19.726562%, 12.120056%)" offset="0.863281"/><stop stop-opacity="1" stop-color="rgb(2.079773%, 19.541931%, 11.872864%)" offset="0.878906"/><stop stop-opacity="1" stop-color="rgb(2.070618%, 19.386292%, 11.662292%)" offset="0.890625"/><stop stop-opacity="1" stop-color="rgb(2.062988%, 19.229126%, 11.451721%)" offset="0.902344"/><stop stop-opacity="1" stop-color="rgb(2.052307%, 19.020081%, 11.169434%)" offset="0.914062"/><stop stop-opacity="1" stop-color="rgb(2.0401%, 18.783569%, 10.853577%)" offset="0.933594"/><stop stop-opacity="1" stop-color="rgb(2.030945%, 18.600464%, 10.60791%)" offset="0.949219"/><stop stop-opacity="1" stop-color="rgb(2.018738%, 18.391418%, 10.325623%)" offset="0.960938"/><stop stop-opacity="1" stop-color="rgb(2.005005%, 18.130493%, 9.97467%)" offset="0.980469"/><stop stop-opacity="1" stop-color="rgb(1.998901%, 17.999268%, 9.799194%)" offset="1"/></radialGradient><clipPath id="eea1cfeda5"><rect x="0" width="375" y="0" height="123"/></clipPath><clipPath id="0932be7e61"><path d="M 191 124.367188 L 365.671875 124.367188 L 365.671875 155 L 191 155 Z M 191 124.367188 " clip-rule="nonzero"/></clipPath><clipPath id="9821f4c76b"><path d="M 183.421875 130 L 358 130 L 358 160.367188 L 183.421875 160.367188 Z M 183.421875 130 " clip-rule="nonzero"/></clipPath></defs><g clip-path="url(#e2f1bdf6cf)"><g clip-path="url(#95fccb9a91)"><path fill="#ffffff" d="M 352.28125 171.128906 L 356.945312 171.128906 L 356.945312 175.199219 L 352.28125 175.199219 Z M 352.28125 171.128906 " fill-opacity="1" fill-rule="nonzero"/></g></g><g mask="url(#eda51add41)"><g transform="matrix(1, 0, 0, 1, 0, 137)"><g clip-path="url(#eea1cfeda5)"><g clip-path="url(#e8b8f125ba)"><g clip-path="url(#9a033ed1e6)"><path fill="#f8f8f8" d="M 6.929688 10.148438 L 367.804688 10.148438 L 367.804688 113.71875 L 6.929688 113.71875 Z M 6.929688 10.148438 " fill-opacity="1" fill-rule="nonzero"/></g></g><g clip-path="url(#8e535f0e4f)"><g clip-path="url(#c82970ad8e)"><path stroke-linecap="butt" transform="matrix(0.75, 0, 0, 0.75, 6.946644, 10.148071)" fill="none" stroke-linejoin="miter" d="M 8.998225 0.00048827 L 472.185726 0.00048827 C 477.159684 0.00048827 481.185726 4.02653 481.185726 9.000488 L 481.185726 129.078613 C 481.185726 134.047363 477.159684 138.078614 472.185726 138.078614 L 8.998225 138.078614 C 4.029475 138.078614 -0.00177497 134.047363 -0.00177497 129.078613 L -0.00177497 9.000488 C -0.00177497 4.02653 4.029475 0.00048827 8.998225 0.00048827 Z M 8.998225 0.00048827 " stroke="url(#11d84e22c3)" stroke-width="6" stroke-miterlimit="4"/></g></g></g></g></g><g clip-path="url(#0932be7e61)"><path fill="#00bf63" d="M 202.800781 124.53125 L 361.316406 124.53125 C 363.871094 124.53125 365.667969 127.039062 364.84375 129.460938 L 357.28125 151.644531 C 356.765625 153.15625 355.347656 154.171875 353.753906 154.171875 L 195.234375 154.171875 C 192.679688 154.171875 190.886719 151.660156 191.707031 149.242188 L 199.273438 127.050781 C 199.789062 125.539062 201.207031 124.527344 202.800781 124.527344 Z M 202.800781 124.53125 " fill-opacity="1" fill-rule="nonzero"/><path fill="#000000" d="M 202.769531 124.34375 L 361.222656 124.34375 C 362.519531 124.34375 363.78125 124.917969 364.53125 125.972656 C 365.28125 127.03125 365.445312 128.269531 365.039062 129.460938 L 357.445312 151.734375 C 356.914062 153.300781 355.4375 154.355469 353.78125 154.355469 L 195.328125 154.355469 C 194.03125 154.355469 192.769531 153.78125 192.019531 152.726562 C 191.269531 151.671875 191.105469 150.433594 191.511719 149.242188 L 199.105469 126.96875 C 199.636719 125.40625 201.113281 124.347656 202.769531 124.347656 Z M 353.78125 153.988281 C 355.28125 153.988281 356.613281 153.035156 357.09375 151.617188 L 364.640625 129.476562 C 365.019531 128.367188 364.898438 127.121094 364.214844 126.167969 C 363.53125 125.21875 362.511719 124.714844 361.371094 124.714844 L 202.800781 124.714844 C 201.285156 124.714844 199.9375 125.675781 199.445312 127.109375 L 191.910156 149.222656 C 191.53125 150.332031 191.652344 151.578125 192.335938 152.53125 C 193.019531 153.484375 194.039062 153.988281 195.179688 153.988281 Z M 353.78125 153.988281 " fill-opacity="1" fill-rule="nonzero"/></g><g clip-path="url(#9821f4c76b)"><path fill="#fffdfd" d="M 195.207031 130.519531 L 353.769531 130.519531 C 356.296875 130.519531 358.070312 133 357.257812 135.394531 L 349.667969 157.664062 C 349.160156 159.15625 347.753906 160.160156 346.179688 160.160156 L 187.621094 160.160156 C 185.09375 160.160156 183.320312 157.679688 184.132812 155.285156 L 191.722656 133.015625 C 192.230469 131.523438 193.636719 130.519531 195.210938 130.519531 Z M 195.207031 130.519531 " fill-opacity="1" fill-rule="nonzero"/><path fill="#020202" d="M 195.207031 130.335938 L 353.769531 130.335938 C 355.035156 130.335938 356.183594 130.921875 356.917969 131.953125 C 357.652344 132.980469 357.839844 134.253906 357.433594 135.453125 L 349.84375 157.722656 C 349.3125 159.289062 347.835938 160.34375 346.183594 160.34375 L 187.621094 160.34375 C 186.355469 160.34375 185.207031 159.753906 184.472656 158.726562 C 183.738281 157.699219 183.550781 156.425781 183.957031 155.226562 L 191.550781 132.957031 C 192.082031 131.390625 193.558594 130.335938 195.210938 130.335938 Z M 346.183594 159.976562 C 347.683594 159.976562 349.011719 159.023438 349.496094 157.605469 L 357.085938 135.335938 C 357.453125 134.253906 357.285156 133.097656 356.621094 132.167969 C 355.953125 131.238281 354.917969 130.707031 353.773438 130.707031 L 195.207031 130.707031 C 193.707031 130.707031 192.378906 131.65625 191.894531 133.078125 L 184.304688 155.347656 C 183.9375 156.433594 184.105469 157.582031 184.769531 158.511719 C 185.4375 159.441406 186.472656 159.976562 187.617188 159.976562 Z M 346.183594 159.976562 " fill-opacity="1" fill-rule="nonzero"/></g></svg>